<svg width="91" height="52" viewBox="0 0 91 52" fill="none" xmlns="http://www.w3.org/2000/svg">
<path d="M46 3H41.3C39.6198 3 38.7798 3 38.138 3.32698C37.5735 3.6146 37.1146 4.07354 36.827 4.63803C36.5 5.27976 36.5 6.11984 36.5 7.8V16.2C36.5 17.8802 36.5 18.7202 36.827 19.362C37.1146 19.9265 37.5735 20.3854 38.138 20.673C38.7798 21 39.6198 21 41.3 21H50.5C51.43 21 51.895 21 52.2765 20.8978C53.3117 20.6204 54.1204 19.8117 54.3978 18.7765C54.5 18.395 54.5 17.93 54.5 17M52.5 8V2M49.5 5H55.5M44 8.5C44 9.60457 43.1046 10.5 42 10.5C40.8954 10.5 40 9.60457 40 8.5C40 7.39543 40.8954 6.5 42 6.5C43.1046 6.5 44 7.39543 44 8.5ZM48.49 11.9181L40.0311 19.608C39.5554 20.0406 39.3175 20.2568 39.2964 20.4442C39.2782 20.6066 39.3405 20.7676 39.4632 20.8755C39.6048 21 39.9263 21 40.5693 21H49.956C51.3951 21 52.1147 21 52.6799 20.7582C53.3894 20.4547 53.9547 19.8894 54.2582 19.1799C54.5 18.6147 54.5 17.8951 54.5 16.456C54.5 15.9717 54.5 15.7296 54.4471 15.5042C54.3805 15.2208 54.253 14.9554 54.0733 14.7264C53.9303 14.5442 53.7412 14.3929 53.3631 14.0905L50.5658 11.8527C50.1874 11.5499 49.9982 11.3985 49.7898 11.3451C49.6061 11.298 49.4129 11.3041 49.2325 11.3627C49.0279 11.4291 48.8486 11.5921 48.49 11.9181Z" stroke="#A4A4A4" stroke-width="2" stroke-linecap="round" stroke-linejoin="round"/>
<path d="M24.5664 39.2207C24.5664 41.3672 25.9883 43.5684 27.7109 44.416L27.0547 45.2773C25.7148 44.5732 24.5938 43.1377 24.0605 41.4492C23.5137 43.2471 22.3652 44.7783 20.998 45.5098L20.3145 44.6484C22.0918 43.7734 23.5 41.4355 23.5137 39.2207V37.0059H24.5664V39.2207ZM29.8984 35.9531V40.8887H31.9355V41.8184H29.8984V48.1074H28.832V35.9531H29.8984ZM36.6868 38.5645C36.6868 40.2051 37.9856 41.6816 39.804 42.2559L39.2571 43.1172C37.8421 42.6387 36.7141 41.6406 36.1673 40.3555C35.6341 41.7432 34.4925 42.8369 33.0501 43.3633L32.4895 42.502C34.3079 41.8594 35.6067 40.2871 35.6067 38.5645V37.8535H32.763V36.9785H39.4895V37.8535H36.6868V38.5645ZM42.347 35.9668V44.8809H41.2805V35.9668H42.347ZM42.7298 46.9453V47.8477H34.4993V44.0332H35.5657V46.9453H42.7298ZM51.5077 38.5371C51.5077 40.0547 52.8202 41.3535 54.6112 41.873L54.119 42.7207C52.6834 42.2969 51.5487 41.3945 51.0018 40.2051C50.4686 41.4902 49.3407 42.4814 47.8983 42.9531L47.3651 42.1191C49.1698 41.5723 50.4549 40.1504 50.4549 38.5371V38.2637H47.7069V37.4023H50.4549V35.8984H51.535V37.4023H54.2557V38.2637H51.5077V38.5371ZM57.4412 35.9531V43.1582H56.3612V40.2598H53.9002V39.3711H56.3612V35.9531H57.4412ZM57.4412 43.7871V47.9434H49.4979V43.7871H57.4412ZM50.5643 44.6621V47.0684H56.3885V44.6621H50.5643ZM70.2999 43.1719V44.0469H65.2277V48.1074H64.1749V44.0469H59.171V43.1719H70.2999ZM61.6593 36.459V38.1406H67.7843V36.459H68.8644V41.6953H60.5929V36.459H61.6593ZM61.6593 40.8203H67.7843V39.0156H61.6593V40.8203Z" fill="#A4A4A4"/>
</svg>
