<svg width="80" height="80" viewBox="0 0 80 80" fill="none" xmlns="http://www.w3.org/2000/svg">
<g filter="url(#filter0_d_18571_50688)">
<circle cx="40" cy="32.5" r="32.5" fill="#FFEDA7"/>
<path d="M36.0781 39.5938C36.125 33.6406 37.8125 31.8125 40.7656 29.9844C42.7812 28.7188 44.2812 27.125 44.2812 24.7812C44.2812 22.1562 42.2656 20.4688 39.6875 20.4688C37.3438 20.4688 35.0938 21.9688 34.9531 25.1094H29.0938C29.2344 18.8281 33.9688 15.5938 39.7344 15.5938C46.0625 15.5938 50.4219 19.1094 50.4219 24.6875C50.4219 28.4844 48.5 30.9688 45.4531 32.7969C42.7344 34.4375 41.6094 36.0781 41.5625 39.5938V40.0156H36.0781V39.5938ZM38.9844 50.375C36.9688 50.375 35.3281 48.7344 35.3281 46.7188C35.3281 44.75 36.9688 43.1094 38.9844 43.1094C40.9062 43.1094 42.5938 44.75 42.5938 46.7188C42.5938 48.7344 40.9062 50.375 38.9844 50.375Z" fill="#FBBC04"/>
</g>
<defs>
<filter id="filter0_d_18571_50688" x="-4" y="0" width="88" height="88" filterUnits="userSpaceOnUse" color-interpolation-filters="sRGB">
<feFlood flood-opacity="0" result="BackgroundImageFix"/>
<feColorMatrix in="SourceAlpha" type="matrix" values="0 0 0 0 0 0 0 0 0 0 0 0 0 0 0 0 0 0 127 0" result="hardAlpha"/>
<feOffset dy="4"/>
<feGaussianBlur stdDeviation="2"/>
<feComposite in2="hardAlpha" operator="out"/>
<feColorMatrix type="matrix" values="0 0 0 0 0 0 0 0 0 0 0 0 0 0 0 0 0 0 0.04 0"/>
<feBlend mode="normal" in2="BackgroundImageFix" result="effect1_dropShadow_18571_50688"/>
<feBlend mode="normal" in="SourceGraphic" in2="effect1_dropShadow_18571_50688" result="shape"/>
</filter>
</defs>
</svg>
